<svg width="26" height="26" viewBox="0 0 26 26" fill="none" xmlns="http://www.w3.org/2000/svg">
<path d="M19.5 9.75L18.59 18.8478C18.4524 20.2269 18.3842 20.9159 18.07 21.437C17.7945 21.8957 17.3892 22.2625 16.9054 22.4911C16.3562 22.75 15.665 22.75 14.2783 22.75H11.7217C10.3361 22.75 9.64383 22.75 9.09458 22.49C8.61038 22.2616 8.20475 21.8948 7.92892 21.4359C7.61692 20.9159 7.54758 20.2269 7.40892 18.8478L6.5 9.75M14.625 16.7917V11.375M11.375 16.7917V11.375M4.875 7.04167H9.87458M9.87458 7.04167L10.2928 4.147C10.4141 3.6205 10.8518 3.25 11.3544 3.25H14.6456C15.1483 3.25 15.5848 3.6205 15.7072 4.147L16.1254 7.04167M9.87458 7.04167H16.1254M16.1254 7.04167H21.125" stroke="#ED2E2E" stroke-width="1.5" stroke-linecap="round" stroke-linejoin="round"/>
</svg>
