<svg width="36" height="40" viewBox="0 0 36 40" fill="none" xmlns="http://www.w3.org/2000/svg">
<g clip-path="url(#clip0_310_137)">
<path d="M27.5294 -0.000144831C22.8499 -0.000144831 19.0585 3.73638 19.0585 8.34825V20.7162C19.0585 20.86 19.1779 20.9775 19.3237 20.9775H24.0871C24.233 20.9775 24.3523 20.86 24.3523 20.7162V8.34825C24.3523 6.61934 25.7751 5.21706 27.5294 5.21706C29.2837 5.21706 30.7065 6.61934 30.7065 8.34825V20.4549C30.7065 22.1839 29.2837 23.5861 27.5294 23.5861H7.48128C7.40616 23.5861 7.34872 23.5295 7.34872 23.4555C7.34872 23.425 7.35756 23.3989 7.37523 23.3771L15.1656 13.4609C18.029 9.81586 17.3529 4.57253 13.6544 1.75054C9.96023 -1.07581 4.63557 -0.409508 1.77219 3.23557C-1.0912 6.88064 -0.415121 12.1283 3.28342 14.9503C3.35854 15.0069 3.60157 15.1594 3.65902 15.1594C3.74297 15.1594 3.81809 15.1202 3.8667 15.0592L6.78311 11.3444C6.81846 11.3009 6.84497 11.2399 6.84497 11.179C6.84497 11.0919 6.80079 11.0135 6.73008 10.9656C6.73008 10.9656 6.5931 10.8741 6.52682 10.8218C5.13932 9.7636 4.88744 7.79517 5.96121 6.42773C7.03498 5.06028 9.03228 4.81205 10.4154 5.8703C11.8029 6.92854 12.0547 8.89697 10.981 10.2644L6.17773 16.3831L0.583528 23.5165C0.548178 23.56 0.526084 23.6166 0.526084 23.6776V28.5464C0.526084 28.6901 0.645391 28.8077 0.791212 28.8077H28.0552C32.4873 28.5377 35.9958 24.8926 35.9958 20.4593V8.3526C36.0002 3.73638 32.2089 -0.000144831 27.5294 -0.000144831Z" fill="#F82514"/>
<path d="M30.4282 31.4121C29.3942 31.4121 28.6828 31.6647 28.3161 32.1612C28.1879 32.3354 28.104 32.54 28.0598 32.7708C28.0244 32.9668 28.0244 33.1497 28.0244 33.2673C28.0244 33.3762 28.0244 33.546 28.0598 33.7376C28.104 33.9685 28.1879 34.1688 28.3116 34.343C28.4707 34.5694 28.7005 34.7436 28.9966 34.8699C29.3545 35.0223 29.814 35.1007 30.362 35.1007C30.9408 35.1007 31.4269 35.0223 31.8069 34.8699C32.1162 34.7436 32.3593 34.5651 32.5316 34.343C32.8365 33.9423 32.8365 33.4894 32.8365 33.2717V33.263C32.8365 33.0147 32.8365 32.5531 32.5404 32.1568C32.1737 31.6647 31.4667 31.4165 30.4282 31.4165V31.4121ZM31.3341 33.263C31.3341 33.3457 31.3341 33.5417 31.2148 33.7159C31.1485 33.816 31.0513 33.8944 30.9276 33.9467C30.7862 34.0076 30.6138 34.0381 30.4061 34.0381C30.1985 34.0381 30.0394 34.0076 29.9068 33.9423C29.7919 33.8901 29.6991 33.8117 29.6329 33.7115C29.518 33.5373 29.518 33.3457 29.518 33.2586C29.518 33.1628 29.518 32.9668 29.6329 32.7926C29.7743 32.5792 30.0394 32.4704 30.4238 32.4704C30.8083 32.4704 31.0734 32.5792 31.2148 32.7883C31.3341 32.9625 31.3341 33.1584 31.3341 33.2542V33.263Z" fill="#F82514"/>
<path d="M0.684468 31.4121H3.74228C3.83066 31.4121 3.90136 31.4818 3.90136 31.5689V32.736C3.90136 32.8231 3.83066 32.8928 3.74228 32.8928H0.684468C0.596091 32.8928 0.525391 32.8231 0.525391 32.736V31.5689C0.525391 31.4818 0.596091 31.4121 0.684468 31.4121Z" fill="#F82514"/>
<path d="M26.5705 31.4121H25.4968C25.4084 31.4121 25.3377 31.4818 25.3377 31.5689V34.9701H24.3656V31.5689C24.3656 31.4818 24.2949 31.4121 24.2065 31.4121H23.1327C23.0443 31.4121 22.9736 31.4818 22.9736 31.5689V39.8476C22.9736 39.9347 23.0443 40.0044 23.1327 40.0044H24.2065C24.2949 40.0044 24.3656 39.9347 24.3656 39.8476V36.4464H25.3377V39.8476C25.3377 39.9347 25.4084 40.0044 25.4968 40.0044H26.5705C26.6589 40.0044 26.7296 39.9347 26.7296 39.8476V31.5689C26.7296 31.4818 26.6589 31.4121 26.5705 31.4121Z" fill="#F82514"/>
<path d="M14.564 32.0261H12.9511V31.5645C12.9511 31.4774 12.8804 31.4077 12.792 31.4077H11.6078C11.5194 31.4077 11.4487 31.4774 11.4487 31.5645V32.0261H9.83584C9.74746 32.0261 9.67676 32.0958 9.67676 32.1829V33.1845C9.67676 33.2716 9.74746 33.3413 9.83584 33.3413H11.1792L10.7947 33.4981C10.5694 33.5895 10.3793 33.7158 10.2291 33.8639C10.1054 33.9902 10.0082 34.1383 9.94189 34.2994C9.81816 34.5999 9.81816 34.896 9.81816 35.0746C9.81816 35.288 9.81816 35.7278 10.101 36.1197C10.26 36.3375 10.4854 36.5117 10.777 36.6293C11.135 36.7773 11.5901 36.8514 12.1292 36.8514C12.7036 36.8514 13.1853 36.7773 13.5609 36.6293C13.8658 36.5073 14.1088 36.3331 14.2767 36.1154C14.5772 35.7278 14.5772 35.2836 14.5772 35.0746V35.0659C14.5772 34.8873 14.5772 34.5912 14.4579 34.2907C14.3916 34.1252 14.2944 33.9815 14.1707 33.8552C14.0249 33.7071 13.8349 33.5852 13.6095 33.4937L13.2251 33.3369H14.5595C14.6479 33.3369 14.7186 33.2673 14.7186 33.1802V32.1785C14.7186 32.0914 14.6479 32.0218 14.5595 32.0218L14.564 32.0261ZM13.0881 35.0702C13.0881 35.1486 13.0881 35.3315 12.9688 35.4926C12.8229 35.693 12.5622 35.7931 12.1822 35.7931C11.9922 35.7931 11.8287 35.7626 11.7006 35.706C11.5857 35.6581 11.4973 35.5841 11.4354 35.4926C11.325 35.3315 11.325 35.1486 11.325 35.0702C11.325 34.9831 11.325 34.8002 11.4399 34.6391C11.5813 34.4431 11.8376 34.3429 12.2043 34.3429C12.5711 34.3429 12.8318 34.4431 12.9688 34.6347C13.0837 34.7958 13.0837 34.9788 13.0837 35.0659L13.0881 35.0702Z" fill="#F82514"/>
<path d="M34.1269 31.4121H35.3111C35.3995 31.4121 35.4702 31.4818 35.4702 31.5689V34.8133C35.4702 34.9004 35.3995 34.9701 35.3111 34.9701H34.1269C34.0385 34.9701 33.9678 34.9004 33.9678 34.8133V31.5689C33.9678 31.4818 34.0385 31.4121 34.1269 31.4121Z" fill="#F82514"/>
<path d="M22.0582 38.5237H20.7016C20.5028 38.515 20.3393 38.3538 20.3393 38.1535V31.5645C20.3393 31.4774 20.2686 31.4077 20.1802 31.4077H18.996C18.9076 31.4077 18.8369 31.4774 18.8369 31.5645V38.4366C18.8369 38.6456 18.8767 38.8503 18.9606 39.0419C19.0402 39.2292 19.1551 39.3946 19.3009 39.5384C19.4467 39.6821 19.6146 39.7953 19.8046 39.8737C19.9991 39.9564 20.2067 39.9956 20.4188 39.9956H22.0494C22.1378 39.9956 22.2085 39.926 22.2085 39.8389V38.6717C22.2085 38.5846 22.1378 38.515 22.0494 38.515L22.0582 38.5237Z" fill="#F82514"/>
<path d="M17.6884 33.3283H17.1538V31.5689C17.1538 31.4818 17.0831 31.4121 16.9947 31.4121H15.8104C15.7221 31.4121 15.6514 31.4818 15.6514 31.5689V36.699C15.6514 36.7861 15.7221 36.8558 15.8104 36.8558H16.9947C17.0831 36.8558 17.1538 36.7861 17.1538 36.699V34.8046H17.6884C17.7768 34.8046 17.8475 34.7349 17.8475 34.6478V33.4807C17.8475 33.3936 17.7768 33.3239 17.6884 33.3239V33.3283Z" fill="#F82514"/>
<path d="M3.74228 38.5236H2.38571C2.18686 38.5149 2.02337 38.3537 2.02337 38.1534V33.7549C2.02337 33.6678 1.95266 33.5981 1.86429 33.5981H0.684468C0.596091 33.5981 0.525391 33.6678 0.525391 33.7549V38.4408C0.525391 38.6499 0.569579 38.8545 0.649117 39.0462C0.728656 39.2334 0.843545 39.3989 0.989365 39.5426C1.13519 39.6863 1.3031 39.7996 1.49311 39.8779C1.68754 39.9607 1.89522 39.9999 2.10732 39.9999H3.73786C3.82624 39.9999 3.89694 39.9302 3.89694 39.8431V38.676C3.89694 38.5889 3.82624 38.5192 3.73786 38.5192L3.74228 38.5236Z" fill="#F82514"/>
<path d="M8.4093 31.5689C8.4093 31.4818 8.3386 31.4121 8.25023 31.4121H7.17646C7.08808 31.4121 7.01738 31.4818 7.01738 31.5689V34.9701H6.04524V31.5689C6.04524 31.4818 5.97454 31.4121 5.88617 31.4121H4.8124C4.72402 31.4121 4.65332 31.4818 4.65332 31.5689V39.8476C4.65332 39.9347 4.72402 40.0044 4.8124 40.0044H5.88617C5.97454 40.0044 6.04524 39.9347 6.04524 39.8476V36.4464H7.01738V39.8476C7.01738 39.9347 7.08808 40.0044 7.17646 40.0044H8.25023C8.3386 40.0044 8.4093 39.9347 8.4093 39.8476V31.5689Z" fill="#F82514"/>
<path d="M35.4694 35.8367C35.4694 35.7496 35.3987 35.6799 35.3103 35.6799H28.5761C28.4877 35.6799 28.417 35.7496 28.417 35.8367V36.5814C28.417 36.6685 28.4877 36.7382 28.5761 36.7382H33.9714V37.3653H28.5761C28.4877 37.3653 28.417 37.435 28.417 37.5221V38.7719V38.7893C28.417 38.9548 28.4479 39.1116 28.5142 39.264C28.5761 39.4078 28.6644 39.5384 28.7793 39.6516C28.8942 39.7649 29.0268 39.852 29.1726 39.9129C29.3228 39.9782 29.4863 40.0087 29.6543 40.0087H35.3103C35.3987 40.0087 35.4694 39.9391 35.4694 39.852V39.1073C35.4694 39.0202 35.3987 38.9505 35.3103 38.9505H30.211C30.0785 38.9505 29.968 38.8634 29.9282 38.7414C29.9194 38.7153 29.915 38.6892 29.915 38.6631V38.319H35.3059C35.3943 38.319 35.465 38.2493 35.465 38.1622V35.8324L35.4694 35.8367Z" fill="#F82514"/>
<path d="M16.995 37.5657H9.98232C9.89394 37.5657 9.82324 37.6354 9.82324 37.7225V38.6152C9.82324 38.7023 9.89394 38.772 9.98232 38.772H15.6516V39.8477C15.6516 39.9348 15.7223 40.0044 15.8107 40.0044H16.995C17.0833 40.0044 17.154 39.9348 17.154 39.8477V37.7225C17.154 37.6354 17.0833 37.5657 16.995 37.5657Z" fill="#F82514"/>
</g>
<defs>
<clipPath id="clip0_310_137">
<rect width="36" height="40" fill="white"/>
</clipPath>
</defs>
</svg>
